<svg version="1.1" xmlns="http://www.w3.org/2000/svg" xmlns:xlink="http://www.w3.org/1999/xlink" width="24" height="24" viewBox="0,0,256,256"><g fill="none" fill-rule="nonzero" stroke="#ffffff" stroke-width="1.5" stroke-linecap="round" stroke-linejoin="round" stroke-miterlimit="10" stroke-dasharray="" stroke-dashoffset="0" font-family="none" font-weight="none" font-size="none" text-anchor="none" style="mix-blend-mode: normal"><g transform="translate(0,-8.00213) scale(10.66667,10.66667)"><path d="M10.7516,16.8604v2.03c0,1.72 -1.60002,3.11 -3.57002,3.11c-1.97,0 -3.58002,-1.39 -3.58002,-3.11v-2.03c0,1.72 1.60002,2.94 3.58002,2.94c1.97,0 3.57002,-1.23 3.57002,-2.94z"></path><path d="M10.7501,14.11c0,0.5 -0.14,0.96 -0.38,1.36c-0.59004,0.97 -1.80006,1.58 -3.20006,1.58c-1.4,0 -2.61001,-0.62 -3.20001,-1.58c-0.24,-0.4 -0.37994,-0.86 -0.37994,-1.36c0,-0.86 0.39998,-1.63 1.03998,-2.19c0.65,-0.57 1.53996,-0.91 2.52996,-0.91c0.99,0 1.88003,0.35 2.53003,0.91c0.66004,0.55 1.06004,1.33 1.06004,2.19z"></path><path d="M10.7516,14.11v2.75c0,1.72 -1.60002,2.94 -3.57002,2.94c-1.97,0 -3.58002,-1.23 -3.58002,-2.94v-2.75c0,-1.72 1.60002,-3.11 3.58002,-3.11c0.99,0 1.88003,0.35 2.53003,0.91c0.63999,0.56 1.03999,1.34 1.03999,2.2z"></path><path d="M22,10.9699v2.0601c0,0.55 -0.44,0.9999 -1,1.0199h-1.9601c-1.08,0 -2.0699,-0.79 -2.1599,-1.87c-0.06,-0.63 0.1799,-1.22 0.5999,-1.63c0.37,-0.38 0.8801,-0.59995 1.4401,-0.59995h2.08c0.56,0.02 1,0.46995 1,1.01995z"></path><path d="M2,10.5v-2c0,-2.72 1.64,-4.62 4.19,-4.94c0.26,-0.04 0.53,-0.06 0.81,-0.06h9c0.26,0 0.51,0.00999 0.75,0.04999c2.58,0.3 4.25,2.21001 4.25,4.95001v1.45001h-2.08c-0.56,0 -1.07,0.21999 -1.44,0.59999c-0.42,0.41 -0.66,1 -0.6,1.63c0.09,1.08 1.08,1.87 2.16,1.87h1.96v1.45c0,3 -2,5 -5,5h-2.5"></path></g></g></svg>