<svg version="1.1" xmlns="http://www.w3.org/2000/svg" xmlns:xlink="http://www.w3.org/1999/xlink" width="24" height="24" viewBox="0,0,256,256"><g fill="#ffffff" fill-rule="nonzero" stroke="none" stroke-width="1" stroke-linecap="butt" stroke-linejoin="miter" stroke-miterlimit="10" stroke-dasharray="" stroke-dashoffset="0" font-family="none" font-weight="none" font-size="none" text-anchor="none" style="mix-blend-mode: normal"><g transform="translate(0,-0.16304) scale(10.66667,10.66667)"><path d="M12,22.7503c-0.63,0 -1.22,-0.2399 -1.66,-0.6899l-1.51999,-1.52c-0.12,-0.12 -0.44001,-0.25 -0.60001,-0.25h-2.16c-1.3,0 -2.35001,-1.0501 -2.35001,-2.3501v-2.1599c0,-0.16 -0.13,-0.48 -0.25,-0.6l-1.51999,-1.52c-0.44,-0.44 -0.69,-1.0301 -0.69,-1.6601c0,-0.63 0.24,-1.22 0.69,-1.66l1.51999,-1.52002c0.12,-0.12 0.25,-0.43998 0.25,-0.59998v-2.15991c0,-1.3 1.05001,-2.3501 2.35001,-2.3501h2.16c0.16,0 0.48001,-0.13 0.60001,-0.25l1.51999,-1.52002c0.88,-0.88 2.44,-0.88 3.32,0l1.52,1.52002c0.12,0.12 0.44,0.25 0.6,0.25h2.16c1.3,0 2.35,1.0501 2.35,2.3501v2.15991c0,0.16 0.13,0.47998 0.25,0.59998l1.52,1.52002c0.44,0.44 0.69,1.03 0.69,1.66c0,0.63 -0.24,1.2201 -0.69,1.6601l-1.52,1.52c-0.12,0.12 -0.25,0.44 -0.25,0.6v2.1599c0,1.3 -1.05,2.3501 -2.35,2.3501h-2.16c-0.16,0 -0.48,0.13 -0.6,0.25l-1.52,1.52c-0.44,0.45 -1.03,0.6899 -1.66,0.6899zM4.51999,14.1203c0.4,0.4 0.69,1.1001 0.69,1.6601v2.1599c0,0.47 0.38001,0.8501 0.85001,0.8501h2.16c0.56,0 1.26001,0.2899 1.66,0.6899l1.52,1.52c0.32,0.32 0.88,0.32 1.2,0l1.52,-1.52c0.4,-0.4 1.1,-0.6899 1.66,-0.6899h2.16c0.47,0 0.85,-0.3801 0.85,-0.8501v-2.1599c0,-0.56 0.29,-1.2601 0.69,-1.6601l1.52,-1.52c0.16,-0.16 0.25,-0.37 0.25,-0.6c0,-0.23 -0.09,-0.4399 -0.25,-0.5999l-1.52,-1.52006c-0.4,-0.4 -0.69,-1.10004 -0.69,-1.66004v-2.15991c0,-0.47 -0.38,-0.8501 -0.85,-0.8501h-2.16c-0.56,0 -1.26,-0.28994 -1.66,-0.68994l-1.52,-1.52002c-0.32,-0.32 -0.88,-0.32 -1.2,0l-1.52,1.52002c-0.39999,0.4 -1.1,0.68994 -1.66,0.68994h-2.16c-0.47,0 -0.85001,0.3801 -0.85001,0.8501v2.15991c0,0.56 -0.29,1.26004 -0.69,1.66004l-1.51999,1.52006c-0.16,0.16 -0.25,0.3699 -0.25,0.5999c0,0.23 0.09,0.44 0.25,0.6z"></path><path d="M15.0002,16c-0.56,0 -1.01,-0.45 -1.01,-1c0,-0.55 0.45,-1 1,-1c0.55,0 1,0.45 1,1c0,0.55 -0.44,1 -0.99,1z"></path><path d="M9.01001,10c-0.56,0 -1.01001,-0.45 -1.01001,-1c0,-0.55 0.45,-1 1,-1c0.55,0 1,0.45 1,1c0,0.55 -0.43999,1 -0.98999,1z"></path><path d="M8.99945,15.7495c-0.19,0 -0.38,-0.07 -0.53,-0.22c-0.29,-0.29 -0.29,-0.77 0,-1.06l6.00005,-6.00005c0.29,-0.29 0.77,-0.29 1.06,0c0.29,0.29 0.29,0.77006 0,1.06006l-6.00005,5.99999c-0.15,0.15 -0.34,0.22 -0.53,0.22z"></path></g></g></svg>