<svg version="1.1" xmlns="http://www.w3.org/2000/svg" xmlns:xlink="http://www.w3.org/1999/xlink" width="24" height="24" viewBox="0,0,256,256"><g fill="#ffffff" fill-rule="nonzero" stroke="none" stroke-width="1" stroke-linecap="butt" stroke-linejoin="miter" stroke-miterlimit="10" stroke-dasharray="" stroke-dashoffset="0" font-family="none" font-weight="none" font-size="none" text-anchor="none" style="mix-blend-mode: normal"><g transform="translate(0,-0.05248) scale(10.66667,10.66667)"><path d="M8,22.3199c-0.28,0 -0.57002,-0.07 -0.83002,-0.21c-0.57,-0.3 -0.91998,-0.9 -0.91998,-1.54v-1.4199c-3.02,-0.31 -5,-2.5301 -5,-5.7101v-5.99996c0,-3.44 2.31,-5.75 5.75,-5.75h10c3.44,0 5.75,2.31 5.75,5.75v5.99996c0,3.44 -2.31,5.75 -5.75,5.75h-3.77l-4.26003,2.8401c-0.29,0.19 -0.62997,0.2899 -0.96997,0.2899zM7,3.17993c-2.58,0 -4.25,1.67 -4.25,4.25v6.00007c0,2.58 1.67,4.25 4.25,4.25c0.41,0 0.75,0.34 0.75,0.75v2.13c0,0.13 0.08,0.19 0.13,0.22c0.05001,0.03 0.15001,0.06 0.26001,-0.01l4.44999,-2.96c0.12,-0.08 0.27,-0.13 0.42,-0.13h4c2.58,0 4.25,-1.67 4.25,-4.25v-6.00007c0,-2.58 -1.67,-4.25 -4.25,-4.25z"></path><path d="M11.9998,12.1099c-0.41,0 -0.75,-0.34 -0.75,-0.75v-0.21c0,-1.16 0.85,-1.73001 1.17,-1.95001c0.37,-0.25 0.49,-0.41999 0.49,-0.67999c0,-0.5 -0.41,-0.91004 -0.91,-0.91004c-0.5,0 -0.91,0.41004 -0.91,0.91004c0,0.41 -0.34,0.75 -0.75,0.75c-0.40996,0 -0.74996,-0.34 -0.74996,-0.75c0,-1.33 1.07996,-2.41004 2.40996,-2.41004c1.33,0 2.41,1.08004 2.41,2.41004c0,1.14 -0.84,1.71 -1.15,1.92c-0.39,0.26 -0.51,0.43 -0.51,0.71v0.21c0,0.42 -0.34,0.75 -0.75,0.75z"></path><path d="M12,14.6001c-0.42,0 -0.75,-0.34 -0.75,-0.75c0,-0.41 0.34,-0.75 0.75,-0.75c0.41,0 0.75,0.34 0.75,0.75c0,0.41 -0.33,0.75 -0.75,0.75z"></path></g></g></svg>