<svg version="1.1" xmlns="http://www.w3.org/2000/svg" xmlns:xlink="http://www.w3.org/1999/xlink" width="24" height="24" viewBox="0,0,256,256"><g fill="none" fill-rule="nonzero" stroke="#ffffff" stroke-width="none" stroke-linecap="round" stroke-linejoin="round" stroke-miterlimit="10" stroke-dasharray="" stroke-dashoffset="0" font-family="none" font-weight="none" font-size="none" text-anchor="none" style="mix-blend-mode: normal"><g transform="scale(10.66667,10.66667)"><path d="M9,22h6c5,0 7,-2 7,-7v-6c0,-5 -2,-7 -7,-7h-6c-5,0 -7,2 -7,7v6c0,5 2,7 7,7z" stroke-width="1.5"></path><path d="M16.28,13.61c-1.13,1.13 -2.75,1.48 -4.18,1.03l-2.58999,2.58c-0.18,0.19 -0.55,0.31 -0.82,0.27l-1.2,-0.16c-0.4,-0.05 -0.76,-0.43 -0.82,-0.82l-0.16,-1.2c-0.04,-0.26 0.09,-0.63 0.27,-0.82l2.58,-2.58c-0.44,-1.43 -0.1,-3.04999 1.02999,-4.17999c1.62,-1.62 4.26,-1.62 5.89,0c1.62,1.61 1.62,4.24999 0,5.87999z" stroke-width="1.5"></path><path d="M10.45,16.28l-0.85002,-0.86" stroke-width="1.5"></path><path d="M13.3945,10.7h0.009" stroke-width="2"></path></g></g></svg>