<svg version="1.1" xmlns="http://www.w3.org/2000/svg" xmlns:xlink="http://www.w3.org/1999/xlink" width="24" height="24" viewBox="0,0,256,256"><g fill="none" fill-rule="nonzero" stroke="none" stroke-width="none" stroke-linecap="none" stroke-linejoin="none" stroke-miterlimit="10" stroke-dasharray="" stroke-dashoffset="0" font-family="none" font-weight="none" font-size="none" text-anchor="none" style="mix-blend-mode: normal"><g transform="translate(0,-3.99893) scale(10.66667,10.66667)"><path d="M15.0006,22.7498h-5.99997c-1.32,0 -2.42,-0.13 -3.35,-0.41c-0.34,-0.1 -0.56,-0.43 -0.54,-0.78c0.25,-2.99 3.28,-5.3401 6.88997,-5.3401c3.61,0 6.63,2.3401 6.89,5.3401c0.03,0.36 -0.19,0.68 -0.54,0.78c-0.93,0.28 -2.03,0.41 -3.35,0.41zM6.72063,21.0598c0.66,0.13 1.41,0.19 2.28,0.19h5.99997c0.87,0 1.62,-0.06 2.28,-0.19c-0.53,-1.92 -2.72,-3.3401 -5.28,-3.3401c-2.55997,0 -4.74997,1.4201 -5.27997,3.3401z" fill="#9197b3" stroke="none" stroke-width="1" stroke-linecap="butt" stroke-linejoin="miter"></path><path d="M15,2h-6c-5,0 -7,2 -7,7v6c0,3.78 1.14,5.85 3.86,6.62c0.22,-2.6 2.89,-4.65 6.14,-4.65c3.25,0 5.92,2.05 6.14,4.65c2.72,-0.77 3.86,-2.84 3.86,-6.62v-6c0,-5 -2,-7 -7,-7zM12,14.17c-1.98,0 -3.58,-1.61 -3.58,-3.59c0,-1.97998 1.6,-3.58 3.58,-3.58c1.98,0 3.58,1.60002 3.58,3.58c0,1.98 -1.6,3.59 -3.58,3.59z" fill="none" stroke="#9197b3" stroke-width="1.5" stroke-linecap="round" stroke-linejoin="round"></path><path d="M11.9999,14.92c-2.38998,0 -4.32998,-1.95 -4.32998,-4.34c0,-2.38998 1.94,-4.33 4.32998,-4.33c2.39,0 4.33,1.94002 4.33,4.33c0,2.39 -1.94,4.34 -4.33,4.34zM11.9999,7.75c-1.56,0 -2.82998,1.27002 -2.82998,2.83c0,1.57 1.26998,2.84 2.82998,2.84c1.56,0 2.83,-1.27 2.83,-2.84c0,-1.55998 -1.27,-2.83 -2.83,-2.83z" fill="#9197b3" stroke="none" stroke-width="1" stroke-linecap="butt" stroke-linejoin="miter"></path></g></g></svg>